<?xml version="1.0" encoding="UTF-8" standalone="no"?> <svg xmlns="http://www.w3.org/2000/svg" width="512" height="512" viewBox="0 0 512 512">
  
  <g>
    <g>
      <path d="M496,68V352H16V68A19.994,19.994,0,0,1,36,48H476A19.994,19.994,0,0,1,496,68Z" fill="#83d8f4"/>
      <rect x="248" y="72" width="224" height="176" fill="#acabb1"/>
      <path d="M496,352v28a19.994,19.994,0,0,1-20,20H36a19.994,19.994,0,0,1-20-20V352Z" fill="#d8d7da"/>
      <polygon points="312 440 200 440 208 400 304 400 312 440" fill="#57565c"/>
      <rect x="168" y="440" width="176" height="24" fill="#d8d7da"/>
      <circle cx="360" cy="160" r="64" fill="#d80027"/>
      <polygon points="336 184 336 136 384 160 336 184" fill="#d8d7da"/>
      <rect x="40" y="72" width="184" height="120" fill="#1a6fb0"/>
      <rect x="64" y="96" width="24" height="24" fill="#d8d7da"/>
      <rect x="64" y="144" width="24" height="24" fill="#d8d7da"/>
      <rect x="120" y="96" width="24" height="24" fill="#d8d7da"/>
      <rect x="120" y="144" width="24" height="24" fill="#d8d7da"/>
      <rect x="176" y="96" width="24" height="24" fill="#d8d7da"/>
      <rect x="176" y="144" width="24" height="24" fill="#d8d7da"/>
      <rect x="16" y="272" width="480" height="48" fill="#1a6fb0"/>
    </g>
    <g>
      <path d="M476,40H36A28.031,28.031,0,0,0,8,68V380a28.031,28.031,0,0,0,28,28H198.24l-4.8,24H168a8,8,0,0,0-8,8v16H128a8,8,0,0,0,0,16H384a8,8,0,0,0,0-16H352V440a8,8,0,0,0-8-8H318.56l-4.8-24H476a28.031,28.031,0,0,0,28-28V68A28.031,28.031,0,0,0,476,40ZM24,280H80v8H24Zm0,24H80v8H24ZM336,448v8H176v-8ZM209.76,432l4.8-24h82.88l4.8,24ZM488,380a12.01,12.01,0,0,1-12,12H36a12.01,12.01,0,0,1-12-12V360H488Zm0-36H24V328H80a8,8,0,0,0,16,0H488Zm0-32H96v-8H488Zm0-24H96v-8H488Zm0-24H96a8,8,0,0,0-16,0H24V68A12.01,12.01,0,0,1,36,56H476a12.01,12.01,0,0,1,12,12Z"/>
      <path d="M80,368H40a8,8,0,0,0,0,16H80a8,8,0,0,0,0-16Z"/>
      <path d="M360,88a72,72,0,1,0,72,72A72.081,72.081,0,0,0,360,88Zm0,128a56,56,0,1,1,56-56A56.063,56.063,0,0,1,360,216Z"/>
      <path d="M387.578,152.845l-48-24A8,8,0,0,0,328,136v48a8,8,0,0,0,11.578,7.155l48-24a8,8,0,0,0,0-14.31ZM344,171.056V148.944L366.111,160Z"/>
      <path d="M248,256H472a8,8,0,0,0,8-8V72a8,8,0,0,0-8-8H248a8,8,0,0,0-8,8V248A8,8,0,0,0,248,256Zm8-176H464V240H256Z"/>
      <path d="M40,200H224a8,8,0,0,0,8-8V72a8,8,0,0,0-8-8H40a8,8,0,0,0-8,8V192A8,8,0,0,0,40,200ZM48,80H216V184H48Z"/>
      <path d="M40,224H80a8,8,0,0,0,0-16H40a8,8,0,0,0,0,16Z"/>
      <path d="M152,208H112a8,8,0,0,0,0,16h40a8,8,0,0,0,0-16Z"/>
      <path d="M224,208H184a8,8,0,0,0,0,16h40a8,8,0,0,0,0-16Z"/>
      <path d="M40,248H80a8,8,0,0,0,0-16H40a8,8,0,0,0,0,16Z"/>
      <path d="M152,232H112a8,8,0,0,0,0,16h40a8,8,0,0,0,0-16Z"/>
      <path d="M224,232H184a8,8,0,0,0,0,16h40a8,8,0,0,0,0-16Z"/>
      <path d="M88,88H64a8,8,0,0,0-8,8v24a8,8,0,0,0,8,8H88a8,8,0,0,0,8-8V96A8,8,0,0,0,88,88Zm-8,24H72v-8h8Z"/>
      <path d="M88,136H64a8,8,0,0,0-8,8v24a8,8,0,0,0,8,8H88a8,8,0,0,0,8-8V144A8,8,0,0,0,88,136Zm-8,24H72v-8h8Z"/>
      <path d="M144,88H120a8,8,0,0,0-8,8v24a8,8,0,0,0,8,8h24a8,8,0,0,0,8-8V96A8,8,0,0,0,144,88Zm-8,24h-8v-8h8Z"/>
      <path d="M144,136H120a8,8,0,0,0-8,8v24a8,8,0,0,0,8,8h24a8,8,0,0,0,8-8V144A8,8,0,0,0,144,136Zm-8,24h-8v-8h8Z"/>
      <path d="M200,88H176a8,8,0,0,0-8,8v24a8,8,0,0,0,8,8h24a8,8,0,0,0,8-8V96A8,8,0,0,0,200,88Zm-8,24h-8v-8h8Z"/>
      <path d="M200,136H176a8,8,0,0,0-8,8v24a8,8,0,0,0,8,8h24a8,8,0,0,0,8-8V144A8,8,0,0,0,200,136Zm-8,24h-8v-8h8Z"/>
    </g>
  </g>
</svg>

